<svg width="24" height="24" viewBox="0 0 24 24" fill="none" xmlns="http://www.w3.org/2000/svg">
<mask id="path-1-outside-1_161" maskUnits="userSpaceOnUse" x="5.0813" y="5.0813" width="14" height="14" fill="black">
<rect fill="white" x="5.0813" y="5.0813" width="14" height="14"/>
<path fill-rule="evenodd" clip-rule="evenodd" d="M17.6258 7.78841C18.0163 7.39788 18.0163 6.76472 17.6258 6.37419C17.2353 5.98367 16.6021 5.98367 16.2116 6.37419L12 10.5858L7.78841 6.37419C7.39788 5.98367 6.76472 5.98367 6.37419 6.37419C5.98367 6.76472 5.98367 7.39788 6.37419 7.78841L10.5858 12L6.37419 16.2116C5.98367 16.6021 5.98367 17.2353 6.37419 17.6258C6.76472 18.0163 7.39788 18.0163 7.78841 17.6258L12 13.4142L16.2116 17.6258C16.6021 18.0163 17.2353 18.0163 17.6258 17.6258C18.0163 17.2353 18.0163 16.6021 17.6258 16.2116L13.4142 12L17.6258 7.78841Z"/>
</mask>
<path fill-rule="evenodd" clip-rule="evenodd" d="M17.6258 7.78841C18.0163 7.39788 18.0163 6.76472 17.6258 6.37419C17.2353 5.98367 16.6021 5.98367 16.2116 6.37419L12 10.5858L7.78841 6.37419C7.39788 5.98367 6.76472 5.98367 6.37419 6.37419C5.98367 6.76472 5.98367 7.39788 6.37419 7.78841L10.5858 12L6.37419 16.2116C5.98367 16.6021 5.98367 17.2353 6.37419 17.6258C6.76472 18.0163 7.39788 18.0163 7.78841 17.6258L12 13.4142L16.2116 17.6258C16.6021 18.0163 17.2353 18.0163 17.6258 17.6258C18.0163 17.2353 18.0163 16.6021 17.6258 16.2116L13.4142 12L17.6258 7.78841Z" fill="#0D0B0C"/>
<path d="M17.6258 6.37419L16.9187 7.0813L16.9187 7.0813L17.6258 6.37419ZM17.6258 7.78841L16.9187 7.0813L16.9187 7.0813L17.6258 7.78841ZM16.2116 6.37419L16.9187 7.0813V7.0813L16.2116 6.37419ZM12 10.5858L11.2929 11.2929C11.4804 11.4804 11.7348 11.5858 12 11.5858C12.2652 11.5858 12.5196 11.4804 12.7071 11.2929L12 10.5858ZM7.78841 6.37419L7.0813 7.0813L7.0813 7.0813L7.78841 6.37419ZM6.37419 6.37419L7.0813 7.0813L7.0813 7.0813L6.37419 6.37419ZM6.37419 7.78841L7.0813 7.0813L7.0813 7.0813L6.37419 7.78841ZM10.5858 12L11.2929 12.7071C11.4804 12.5196 11.5858 12.2652 11.5858 12C11.5858 11.7348 11.4804 11.4804 11.2929 11.2929L10.5858 12ZM6.37419 16.2116L7.0813 16.9187H7.0813L6.37419 16.2116ZM6.37419 17.6258L7.0813 16.9187L7.0813 16.9187L6.37419 17.6258ZM7.78841 17.6258L7.0813 16.9187L7.0813 16.9187L7.78841 17.6258ZM12 13.4142L12.7071 12.7071C12.3166 12.3166 11.6834 12.3166 11.2929 12.7071L12 13.4142ZM16.2116 17.6258L16.9187 16.9187L16.9187 16.9187L16.2116 17.6258ZM17.6258 17.6258L16.9187 16.9187L16.9187 16.9187L17.6258 17.6258ZM17.6258 16.2116L16.9187 16.9187L16.9187 16.9187L17.6258 16.2116ZM13.4142 12L12.7071 11.2929C12.3166 11.6834 12.3166 12.3166 12.7071 12.7071L13.4142 12ZM16.9187 7.0813V7.0813L18.3329 8.49551C19.114 7.71446 19.114 6.44813 18.3329 5.66708L16.9187 7.0813ZM16.9187 7.0813H16.9187L18.3329 5.66709C17.5519 4.88604 16.2855 4.88604 15.5045 5.66709L16.9187 7.0813ZM12.7071 11.2929L16.9187 7.0813L15.5045 5.66709L11.2929 9.87868L12.7071 11.2929ZM7.0813 7.0813L11.2929 11.2929L12.7071 9.87868L8.49551 5.66709L7.0813 7.0813ZM7.0813 7.0813L7.0813 7.0813L8.49551 5.66709C7.71446 4.88604 6.44813 4.88604 5.66709 5.66709L7.0813 7.0813ZM7.0813 7.0813L7.0813 7.0813L5.66709 5.66709C4.88604 6.44813 4.88604 7.71446 5.66709 8.49551L7.0813 7.0813ZM11.2929 11.2929L7.0813 7.0813L5.66709 8.49551L9.87868 12.7071L11.2929 11.2929ZM7.0813 16.9187L11.2929 12.7071L9.87868 11.2929L5.66709 15.5045L7.0813 16.9187ZM7.0813 16.9187V16.9187L5.66709 15.5045C4.88604 16.2855 4.88604 17.5519 5.66709 18.3329L7.0813 16.9187ZM7.0813 16.9187H7.0813L5.66708 18.3329C6.44813 19.114 7.71446 19.114 8.49551 18.3329L7.0813 16.9187ZM11.2929 12.7071L7.0813 16.9187L8.49551 18.3329L12.7071 14.1213L11.2929 12.7071ZM16.9187 16.9187L12.7071 12.7071L11.2929 14.1213L15.5045 18.3329L16.9187 16.9187ZM16.9187 16.9187H16.9187L15.5045 18.3329C16.2855 19.114 17.5519 19.114 18.3329 18.3329L16.9187 16.9187ZM16.9187 16.9187V16.9187L18.3329 18.3329C19.114 17.5519 19.114 16.2855 18.3329 15.5045L16.9187 16.9187ZM12.7071 12.7071L16.9187 16.9187L18.3329 15.5045L14.1213 11.2929L12.7071 12.7071ZM16.9187 7.0813L12.7071 11.2929L14.1213 12.7071L18.3329 8.49551L16.9187 7.0813Z" fill="#0D0B0C" mask="url(#path-1-outside-1_161)"/>
</svg>
