<svg width="24" height="24" viewBox="0 0 24 24" fill="none" xmlns="http://www.w3.org/2000/svg">
<path fill-rule="evenodd" clip-rule="evenodd" d="M12 21.7778C12 21.7778 20 16.4444 20 10.2222C20 8.10048 19.1571 6.06565 17.6569 4.56536C16.1566 3.06507 14.1217 2.22221 12 2.22221C9.87827 2.22221 7.84344 3.06507 6.34315 4.56536C4.84285 6.06565 4 8.10048 4 10.2222C4 16.4444 12 21.7778 12 21.7778ZM14.6676 10.2224C14.6676 11.6952 13.4736 12.8891 12.0009 12.8891C10.5281 12.8891 9.33421 11.6952 9.33421 10.2224C9.33421 8.74965 10.5281 7.55574 12.0009 7.55574C13.4736 7.55574 14.6676 8.74965 14.6676 10.2224Z" fill="white"/>
</svg>
