<svg width="0" height="0" class="hidden">
  <symbol fill="none" xmlns="http://www.w3.org/2000/svg" viewBox="0 0 24 24" id="close">
    <mask id="path-1-outside-1_161" maskUnits="userSpaceOnUse" x="5.0813" y="5.0813" width="14" height="14" fill="black">
      <rect fill="white" x="5.0813" y="5.0813" width="14" height="14"></rect>
      <path fill-rule="evenodd" clip-rule="evenodd" d="M17.6258 7.78841C18.0163 7.39788 18.0163 6.76472 17.6258 6.37419C17.2353 5.98367 16.6021 5.98367 16.2116 6.37419L12 10.5858L7.78841 6.37419C7.39788 5.98367 6.76472 5.98367 6.37419 6.37419C5.98367 6.76472 5.98367 7.39788 6.37419 7.78841L10.5858 12L6.37419 16.2116C5.98367 16.6021 5.98367 17.2353 6.37419 17.6258C6.76472 18.0163 7.39788 18.0163 7.78841 17.6258L12 13.4142L16.2116 17.6258C16.6021 18.0163 17.2353 18.0163 17.6258 17.6258C18.0163 17.2353 18.0163 16.6021 17.6258 16.2116L13.4142 12L17.6258 7.78841Z"></path>
    </mask>
    <path fill-rule="evenodd" clip-rule="evenodd" d="M17.6258 7.78841C18.0163 7.39788 18.0163 6.76472 17.6258 6.37419C17.2353 5.98367 16.6021 5.98367 16.2116 6.37419L12 10.5858L7.78841 6.37419C7.39788 5.98367 6.76472 5.98367 6.37419 6.37419C5.98367 6.76472 5.98367 7.39788 6.37419 7.78841L10.5858 12L6.37419 16.2116C5.98367 16.6021 5.98367 17.2353 6.37419 17.6258C6.76472 18.0163 7.39788 18.0163 7.78841 17.6258L12 13.4142L16.2116 17.6258C16.6021 18.0163 17.2353 18.0163 17.6258 17.6258C18.0163 17.2353 18.0163 16.6021 17.6258 16.2116L13.4142 12L17.6258 7.78841Z" fill="#0D0B0C"></path>
    <path d="M17.6258 6.37419L16.9187 7.0813L16.9187 7.0813L17.6258 6.37419ZM17.6258 7.78841L16.9187 7.0813L16.9187 7.0813L17.6258 7.78841ZM16.2116 6.37419L16.9187 7.0813V7.0813L16.2116 6.37419ZM12 10.5858L11.2929 11.2929C11.4804 11.4804 11.7348 11.5858 12 11.5858C12.2652 11.5858 12.5196 11.4804 12.7071 11.2929L12 10.5858ZM7.78841 6.37419L7.0813 7.0813L7.0813 7.0813L7.78841 6.37419ZM6.37419 6.37419L7.0813 7.0813L7.0813 7.0813L6.37419 6.37419ZM6.37419 7.78841L7.0813 7.0813L7.0813 7.0813L6.37419 7.78841ZM10.5858 12L11.2929 12.7071C11.4804 12.5196 11.5858 12.2652 11.5858 12C11.5858 11.7348 11.4804 11.4804 11.2929 11.2929L10.5858 12ZM6.37419 16.2116L7.0813 16.9187H7.0813L6.37419 16.2116ZM6.37419 17.6258L7.0813 16.9187L7.0813 16.9187L6.37419 17.6258ZM7.78841 17.6258L7.0813 16.9187L7.0813 16.9187L7.78841 17.6258ZM12 13.4142L12.7071 12.7071C12.3166 12.3166 11.6834 12.3166 11.2929 12.7071L12 13.4142ZM16.2116 17.6258L16.9187 16.9187L16.9187 16.9187L16.2116 17.6258ZM17.6258 17.6258L16.9187 16.9187L16.9187 16.9187L17.6258 17.6258ZM17.6258 16.2116L16.9187 16.9187L16.9187 16.9187L17.6258 16.2116ZM13.4142 12L12.7071 11.2929C12.3166 11.6834 12.3166 12.3166 12.7071 12.7071L13.4142 12ZM16.9187 7.0813V7.0813L18.3329 8.49551C19.114 7.71446 19.114 6.44813 18.3329 5.66708L16.9187 7.0813ZM16.9187 7.0813H16.9187L18.3329 5.66709C17.5519 4.88604 16.2855 4.88604 15.5045 5.66709L16.9187 7.0813ZM12.7071 11.2929L16.9187 7.0813L15.5045 5.66709L11.2929 9.87868L12.7071 11.2929ZM7.0813 7.0813L11.2929 11.2929L12.7071 9.87868L8.49551 5.66709L7.0813 7.0813ZM7.0813 7.0813L7.0813 7.0813L8.49551 5.66709C7.71446 4.88604 6.44813 4.88604 5.66709 5.66709L7.0813 7.0813ZM7.0813 7.0813L7.0813 7.0813L5.66709 5.66709C4.88604 6.44813 4.88604 7.71446 5.66709 8.49551L7.0813 7.0813ZM11.2929 11.2929L7.0813 7.0813L5.66709 8.49551L9.87868 12.7071L11.2929 11.2929ZM7.0813 16.9187L11.2929 12.7071L9.87868 11.2929L5.66709 15.5045L7.0813 16.9187ZM7.0813 16.9187V16.9187L5.66709 15.5045C4.88604 16.2855 4.88604 17.5519 5.66709 18.3329L7.0813 16.9187ZM7.0813 16.9187H7.0813L5.66708 18.3329C6.44813 19.114 7.71446 19.114 8.49551 18.3329L7.0813 16.9187ZM11.2929 12.7071L7.0813 16.9187L8.49551 18.3329L12.7071 14.1213L11.2929 12.7071ZM16.9187 16.9187L12.7071 12.7071L11.2929 14.1213L15.5045 18.3329L16.9187 16.9187ZM16.9187 16.9187H16.9187L15.5045 18.3329C16.2855 19.114 17.5519 19.114 18.3329 18.3329L16.9187 16.9187ZM16.9187 16.9187V16.9187L18.3329 18.3329C19.114 17.5519 19.114 16.2855 18.3329 15.5045L16.9187 16.9187ZM12.7071 12.7071L16.9187 16.9187L18.3329 15.5045L14.1213 11.2929L12.7071 12.7071ZM16.9187 7.0813L12.7071 11.2929L14.1213 12.7071L18.3329 8.49551L16.9187 7.0813Z" fill="#0D0B0C" mask="url(#path-1-outside-1_161)"></path>
  </symbol>
  <symbol fill="none" xmlns="http://www.w3.org/2000/svg" viewBox="0 0 24 24" id="dropdown">
    <path d="M12 16.5L8.10289 9.75L15.8971 9.75L12 16.5Z" fill="#0D0B0C"></path>
  </symbol>
  <symbol fill="none" xmlns="http://www.w3.org/2000/svg" viewBox="0 0 24 24" id="GPS">
    <path d="M20.5018 8.82642C20.5018 4.12632 16.692 0.309998 12 0.309998C7.30796 0.309998 3.49818 4.12632 3.49818 8.82642C3.49818 12.6829 6.18508 16.1377 9.87455 17.1018L10.5964 19.0301C8.59126 19.1506 5.22261 19.6326 5.22261 21.3199C5.22261 23.6097 11.3183 23.69 12.0401 23.69C12.762 23.69 18.8576 23.6097 18.8576 21.3199C18.8576 19.5925 15.4489 19.1506 13.4437 19.0301L14.1255 17.142C17.8149 16.1779 20.5018 12.7231 20.5018 8.82642ZM14.7671 8.82642C14.7671 10.353 13.5239 11.5983 12 11.5983C10.4761 11.5983 9.2329 10.353 9.2329 8.82642C9.2329 7.29989 10.4761 6.05457 12 6.05457C13.5239 6.05457 14.7671 7.29989 14.7671 8.82642ZM17.4139 21.3199C17.0129 21.7216 15.0478 22.3242 12 22.3242C8.99228 22.3242 7.02724 21.7216 6.58611 21.3199C6.94704 20.9583 8.59125 20.4361 11.0776 20.3557L11.5188 21.5207C11.599 21.7216 11.7594 21.8421 12 21.8421C12.2005 21.8421 12.401 21.7216 12.4812 21.5207L12.8823 20.3557C15.4088 20.4361 17.0129 20.9583 17.4139 21.3199Z" fill="white"></path>
  </symbol>
  <symbol fill="none" xmlns="http://www.w3.org/2000/svg" viewBox="0 0 24 24" id="map_M">
    <path fill-rule="evenodd" clip-rule="evenodd" d="M12 21.7778C12 21.7778 20 16.4444 20 10.2222C20 8.10048 19.1571 6.06565 17.6569 4.56536C16.1566 3.06507 14.1217 2.22221 12 2.22221C9.87827 2.22221 7.84344 3.06507 6.34315 4.56536C4.84285 6.06565 4 8.10048 4 10.2222C4 16.4444 12 21.7778 12 21.7778ZM14.6676 10.2224C14.6676 11.6952 13.4736 12.8891 12.0009 12.8891C10.5281 12.8891 9.33421 11.6952 9.33421 10.2224C9.33421 8.74965 10.5281 7.55574 12.0009 7.55574C13.4736 7.55574 14.6676 8.74965 14.6676 10.2224Z" fill="white"></path>
  </symbol>
  <symbol fill="none" xmlns="http://www.w3.org/2000/svg" viewBox="0 0 16 16" id="map">
    <path fill-rule="evenodd" clip-rule="evenodd" d="M5.5 13.4444C5.5 13.4444 11 9.77778 11 5.5C11 4.04131 10.4205 2.64236 9.38909 1.61091C8.35764 0.579463 6.95869 0 5.5 0C4.04131 0 2.64236 0.579463 1.61091 1.61091C0.579463 2.64236 0 4.04131 0 5.5C0 9.77778 5.5 13.4444 5.5 13.4444ZM7.33388 5.49991C7.33388 6.51243 6.51307 7.33324 5.50055 7.33324C4.48803 7.33324 3.66721 6.51243 3.66721 5.49991C3.66721 4.48739 4.48803 3.66658 5.50055 3.66658C6.51307 3.66658 7.33388 4.48739 7.33388 5.49991Z" fill="#FF1D6C"></path>
  </symbol>
  <symbol fill="none" xmlns="http://www.w3.org/2000/svg" viewBox="0 0 24 24" id="next-1">
    <path d="M9 8.18182V15.8182L15 12L9 8.18182Z" fill="white"></path>
  </symbol>
  <symbol fill="none" xmlns="http://www.w3.org/2000/svg" viewBox="0 0 24 24" id="next">
    <path d="M9 18L15 12L9 6" stroke="#0D0B0C" stroke-width="3" stroke-linecap="round" stroke-linejoin="round"></path>
  </symbol>
  <symbol fill="none" xmlns="http://www.w3.org/2000/svg" viewBox="0 0 24 24" id="previous-1">
    <path d="M15 15.8182L15 8.18182L9 12L15 15.8182Z" fill="#0D0B0C"></path>
  </symbol>
  <symbol fill="none" xmlns="http://www.w3.org/2000/svg" viewBox="0 0 24 24" id="previous">
    <path d="M15 18L9 12L15 6" stroke="#0D0B0C" stroke-width="3" stroke-linecap="round" stroke-linejoin="round"></path>
  </symbol>
  <symbol fill="none" xmlns="http://www.w3.org/2000/svg" viewBox="0 0 24 24" id="search">
    <path d="M19.5902 18.8006L19.5899 18.8003L17.4894 16.6039C18.5988 15.2274 19.267 13.4511 19.267 11.5169C19.267 7.17433 15.8923 3.61429 11.7089 3.61429C7.52548 3.61429 4.15 7.17428 4.15 11.5169C4.15 15.8595 7.52544 19.4204 11.7089 19.4204C13.3801 19.4204 14.9252 18.8502 16.1759 17.889L18.2995 20.1079L18.3 20.1084C18.4754 20.291 18.709 20.3857 18.9447 20.3857C19.1801 20.3857 19.4157 20.2916 19.5917 20.1051C19.9374 19.742 19.9353 19.1622 19.5902 18.8006ZM5.96031 11.5169C5.96031 8.17123 8.55457 5.47767 11.7089 5.47767C14.8624 5.47767 17.4567 8.1712 17.4567 11.5169C17.4567 14.8627 14.8623 17.557 11.7089 17.557C8.55463 17.557 5.96031 14.8627 5.96031 11.5169Z" fill="white" stroke="white" stroke-width="0.7"></path>
  </symbol>
  <symbol fill="none" xmlns="http://www.w3.org/2000/svg" viewBox="0 0 24 24" id="tel">
    <path fill-rule="evenodd" clip-rule="evenodd" d="M4.68649 5.33726C4.68834 5.33726 4.642 5.38546 4.58361 5.44292C4.35933 5.66072 3.895 6.11393 3.89032 7.06207C3.88295 8.38834 4.75507 10.8509 8.95443 15.0494C13.1343 19.2274 15.5931 20.1098 16.9222 20.1098H16.9416C17.8898 20.1051 18.342 19.6399 18.5608 19.4165C18.6275 19.3479 18.6813 19.2979 18.7192 19.2664C19.6423 18.3377 20.115 17.6463 20.1104 17.2033C20.1039 16.751 19.5413 16.2162 18.7637 15.4766C18.5163 15.2412 18.2475 14.9854 17.9639 14.7018C17.2289 13.9687 16.8647 14.0938 16.064 14.3756C14.9564 14.7639 13.4365 15.2922 11.075 12.9297C8.70975 10.5664 9.23896 9.04823 9.62636 7.94069C9.90626 7.13992 10.0342 6.77475 9.29827 6.03886C9.01004 5.75155 8.75146 5.47907 8.51327 5.22883C7.77831 4.45586 7.24818 3.89699 6.79868 3.8905H6.79126C6.34732 3.8905 5.65778 4.36503 4.68186 5.34097C4.68464 5.33819 4.68649 5.33726 4.68649 5.33726ZM16.9231 21.5C14.6135 21.5 11.6023 19.6612 7.97201 16.0327C4.32782 12.3894 2.48625 9.36891 2.50008 7.05465C2.5085 5.52541 3.31018 4.74225 3.6114 4.44845C3.62715 4.42898 3.68091 4.37615 3.69944 4.35762C5.02848 3.02764 5.9247 2.49009 6.81629 2.50014C7.85153 2.51418 8.58834 3.289 9.52071 4.2705C9.75148 4.51332 10.0017 4.77747 10.2807 5.05551C11.6338 6.40866 11.2483 7.5125 10.9387 8.39853C10.6014 9.3652 10.3094 10.1993 12.0574 11.9473C13.8072 13.6953 14.6413 13.4033 15.6043 13.0632C16.4912 12.7536 17.5923 12.3662 18.9472 13.7194C19.2216 13.9937 19.482 14.2412 19.7221 14.4701C20.7082 15.4071 21.4867 16.1476 21.4998 17.1857C21.5108 18.0708 20.9732 18.9726 19.6461 20.3007L19.0585 19.9022L19.5552 20.3878C19.2614 20.689 18.4792 21.4917 16.9491 21.5H16.9231Z" fill="#FF1D6C"></path>
  </symbol>
  <symbol fill="none" xmlns="http://www.w3.org/2000/svg" viewBox="0 0 24 24" id="time">
    <path fill-rule="evenodd" clip-rule="evenodd" d="M12 2.5C17.2383 2.5 21.5 6.7617 21.5 12C21.5 17.2383 17.2383 21.5 12 21.5C6.7617 21.5 2.5 17.2383 2.5 12C2.5 6.7617 6.7617 2.5 12 2.5ZM12 3.925C7.54735 3.925 3.925 7.54735 3.925 12C3.925 16.4527 7.54735 20.075 12 20.075C16.4527 20.075 20.075 16.4527 20.075 12C20.075 7.54735 16.4527 3.925 12 3.925ZM11.6781 7.34063C12.0724 7.34063 12.3906 7.65983 12.3906 8.05313V12.254L15.6254 14.1825C15.9626 14.3849 16.0738 14.8219 15.8724 15.1601C15.7384 15.3833 15.5019 15.5078 15.2596 15.5078C15.1352 15.5078 15.0098 15.4755 14.8948 15.408L11.3133 13.2715C11.0986 13.1423 10.9656 12.9095 10.9656 12.6587V8.05313C10.9656 7.65983 11.2848 7.34063 11.6781 7.34063Z" fill="#FF1D6C"></path>
  </symbol>
  <symbol fill="none" xmlns="http://www.w3.org/2000/svg" viewBox="0 0 34 34" id="lodging">
    <rect width="34" height="34" rx="17" fill="#FFB72C"></rect>
    <rect x="12.5" y="12.5" width="9" height="9" fill="white"></rect>
  </symbol>
  <symbol fill="none" xmlns="http://www.w3.org/2000/svg" viewBox="0 0 24 24" id="ticket">
    <path fill-rule="evenodd" clip-rule="evenodd" d="M17.9218 4.26744C19.8943 4.26744 21.4991 5.85637 21.4991 7.80851L21.5 10.1009C21.5 10.2759 21.4302 10.4455 21.3056 10.5693C21.1819 10.6939 21.0131 10.7637 20.8372 10.7637C20.1417 10.7637 19.5761 11.3187 19.5761 12.0009C19.5761 12.6831 20.1417 13.2381 20.8372 13.2381C21.2031 13.2381 21.5 13.535 21.5 13.9009V16.1915C21.5 18.1436 19.8952 19.7326 17.9227 19.7326H6.0773C4.10484 19.7326 2.5 18.1436 2.5 16.1915V13.9009C2.5 13.535 2.79693 13.2381 3.16279 13.2381C3.85828 13.2381 4.42386 12.6831 4.42386 12.0009C4.42386 11.3381 3.88126 10.8379 3.16279 10.8379C2.98693 10.8379 2.81814 10.7681 2.69442 10.6435C2.56981 10.5198 2.5 10.3501 2.5 10.1751L2.50088 7.80851C2.50088 5.85637 4.10572 4.26744 6.07819 4.26744H17.9218ZM17.9218 5.59302H14.2968L14.2973 7.29083C14.2973 7.65669 14.0004 7.95362 13.6345 7.95362C13.2687 7.95362 12.9717 7.65669 12.9717 7.29083L12.9712 5.59302H6.07819C4.83656 5.59302 3.82647 6.58721 3.82647 7.80851L3.82558 9.59186C4.94526 9.8667 5.74944 10.8264 5.74944 12.0009C5.74944 13.1868 4.93112 14.1872 3.82558 14.478V16.1915C3.82558 17.4128 4.83567 18.407 6.0773 18.407H12.9712L12.9717 17.0916C12.9717 16.7248 13.2687 16.4288 13.6345 16.4288C14.0004 16.4288 14.2973 16.7248 14.2973 17.0916L14.2968 18.407H17.9227C19.1643 18.407 20.1744 17.4128 20.1744 16.1915V14.478C19.0689 14.1872 18.2506 13.1868 18.2506 12.0009C18.2506 10.814 19.068 9.81456 20.1744 9.52381L20.1735 7.80851C20.1735 6.58721 19.1634 5.59302 17.9218 5.59302ZM13.6345 9.13188C14.0004 9.13188 14.2973 9.42881 14.2973 9.79467V14.0551C14.2973 14.421 14.0004 14.7179 13.6345 14.7179C13.2687 14.7179 12.9717 14.421 12.9717 14.0551V9.79467C12.9717 9.42881 13.2687 9.13188 13.6345 9.13188Z" fill="#FF1D6C"></path>
  </symbol>
  <symbol fill="none" xmlns="http://www.w3.org/2000/svg" viewBox="0 0 34 34" id="spot">
    <rect x="0.5" y="0.5" width="33" height="33" rx="16.5" fill="#FF1D6C"></rect>
    <path d="M17 12.4706L11.5 21.5294H22.5L17 12.4706Z" fill="white"></path>
    <rect x="0.5" y="0.5" width="33" height="33" rx="16.5" stroke="#FF1D6C"></rect>
  </symbol>
  <symbol fill="none" xmlns="http://www.w3.org/2000/svg" viewBox="0 0 34 34" id="traffic">
    <rect width="34" height="34" rx="17" fill="#007350"></rect>
    <circle cx="17" cy="17" r="5.5" fill="white"></circle>
  </symbol>
</svg>