<svg width="0" height="0" class="hidden">
  <symbol fill="none" xmlns="http://www.w3.org/2000/svg" viewBox="0 0 24 24" id="close">
    <mask id="path-1-outside-1_194:13894" maskUnits="userSpaceOnUse" x="5.0813" y="5.0813" width="14" height="14" fill="black">
      <rect fill="white" x="5.0813" y="5.0813" width="14" height="14"></rect>
      <path fill-rule="evenodd" clip-rule="evenodd" d="M17.6258 7.78841C18.0163 7.39788 18.0163 6.76472 17.6258 6.37419C17.2353 5.98367 16.6021 5.98367 16.2116 6.37419L12 10.5858L7.78841 6.37419C7.39788 5.98367 6.76472 5.98367 6.37419 6.37419C5.98367 6.76472 5.98367 7.39788 6.37419 7.78841L10.5858 12L6.37419 16.2116C5.98367 16.6021 5.98367 17.2353 6.37419 17.6258C6.76472 18.0163 7.39788 18.0163 7.78841 17.6258L12 13.4142L16.2116 17.6258C16.6021 18.0163 17.2353 18.0163 17.6258 17.6258C18.0163 17.2353 18.0163 16.6021 17.6258 16.2116L13.4142 12L17.6258 7.78841Z"></path>
    </mask>
    <path fill-rule="evenodd" clip-rule="evenodd" d="M17.6258 7.78841C18.0163 7.39788 18.0163 6.76472 17.6258 6.37419C17.2353 5.98367 16.6021 5.98367 16.2116 6.37419L12 10.5858L7.78841 6.37419C7.39788 5.98367 6.76472 5.98367 6.37419 6.37419C5.98367 6.76472 5.98367 7.39788 6.37419 7.78841L10.5858 12L6.37419 16.2116C5.98367 16.6021 5.98367 17.2353 6.37419 17.6258C6.76472 18.0163 7.39788 18.0163 7.78841 17.6258L12 13.4142L16.2116 17.6258C16.6021 18.0163 17.2353 18.0163 17.6258 17.6258C18.0163 17.2353 18.0163 16.6021 17.6258 16.2116L13.4142 12L17.6258 7.78841Z" fill="#0D0B0C"></path>
    <path d="M17.6258 6.37419L16.9187 7.0813L16.9187 7.0813L17.6258 6.37419ZM17.6258 7.78841L16.9187 7.0813V7.0813L17.6258 7.78841ZM16.2116 6.37419L16.9187 7.0813L16.9187 7.0813L16.2116 6.37419ZM12 10.5858L11.2929 11.2929C11.4804 11.4804 11.7348 11.5858 12 11.5858C12.2652 11.5858 12.5196 11.4804 12.7071 11.2929L12 10.5858ZM7.78841 6.37419L8.49551 5.66709V5.66709L7.78841 6.37419ZM6.37419 6.37419L7.0813 7.0813L7.0813 7.0813L6.37419 6.37419ZM6.37419 7.78841L5.66709 8.49551H5.66709L6.37419 7.78841ZM10.5858 12L11.2929 12.7071C11.4804 12.5196 11.5858 12.2652 11.5858 12C11.5858 11.7348 11.4804 11.4804 11.2929 11.2929L10.5858 12ZM6.37419 16.2116L7.0813 16.9187L7.0813 16.9187L6.37419 16.2116ZM6.37419 17.6258L7.0813 16.9187L7.0813 16.9187L6.37419 17.6258ZM7.78841 17.6258L7.0813 16.9187H7.0813L7.78841 17.6258ZM12 13.4142L12.7071 12.7071C12.5196 12.5196 12.2652 12.4142 12 12.4142C11.7348 12.4142 11.4804 12.5196 11.2929 12.7071L12 13.4142ZM16.2116 17.6258L16.9187 16.9187L16.9187 16.9187L16.2116 17.6258ZM17.6258 17.6258L16.9187 16.9187L16.9187 16.9187L17.6258 17.6258ZM17.6258 16.2116L16.9187 16.9187L16.9187 16.9187L17.6258 16.2116ZM13.4142 12L12.7071 11.2929C12.5196 11.4804 12.4142 11.7348 12.4142 12C12.4142 12.2652 12.5196 12.5196 12.7071 12.7071L13.4142 12ZM16.9187 7.0813V7.0813L18.3329 8.49551C19.114 7.71446 19.114 6.44813 18.3329 5.66708L16.9187 7.0813ZM16.9187 7.0813H16.9187L18.3329 5.66709C17.5519 4.88604 16.2855 4.88604 15.5045 5.66709L16.9187 7.0813ZM12.7071 11.2929L16.9187 7.0813L15.5045 5.66709L11.2929 9.87868L12.7071 11.2929ZM7.0813 7.0813L11.2929 11.2929L12.7071 9.87868L8.49551 5.66709L7.0813 7.0813ZM7.0813 7.0813V7.0813L8.49551 5.66709C7.71446 4.88604 6.44813 4.88604 5.66709 5.66709L7.0813 7.0813ZM7.0813 7.0813H7.0813L5.66709 5.66709C4.88604 6.44813 4.88604 7.71446 5.66709 8.49551L7.0813 7.0813ZM11.2929 11.2929L7.0813 7.0813L5.66709 8.49551L9.87868 12.7071L11.2929 11.2929ZM7.0813 16.9187L11.2929 12.7071L9.87868 11.2929L5.66709 15.5045L7.0813 16.9187ZM7.0813 16.9187V16.9187L5.66709 15.5045C4.88604 16.2855 4.88604 17.5519 5.66709 18.3329L7.0813 16.9187ZM7.0813 16.9187H7.0813L5.66708 18.3329C6.44813 19.114 7.71446 19.114 8.49551 18.3329L7.0813 16.9187ZM11.2929 12.7071L7.0813 16.9187L8.49551 18.3329L12.7071 14.1213L11.2929 12.7071ZM16.9187 16.9187L12.7071 12.7071L11.2929 14.1213L15.5045 18.3329L16.9187 16.9187ZM16.9187 16.9187H16.9187L15.5045 18.3329C16.2855 19.114 17.5519 19.114 18.3329 18.3329L16.9187 16.9187ZM16.9187 16.9187V16.9187L18.3329 18.3329C19.114 17.5519 19.114 16.2855 18.3329 15.5045L16.9187 16.9187ZM12.7071 12.7071L16.9187 16.9187L18.3329 15.5045L14.1213 11.2929L12.7071 12.7071ZM16.9187 7.0813L12.7071 11.2929L14.1213 12.7071L18.3329 8.49551L16.9187 7.0813Z" fill="#0D0B0C" mask="url(#path-1-outside-1_194:13894)"></path>
  </symbol>
  <symbol fill="none" xmlns="http://www.w3.org/2000/svg" viewBox="0 0 24 24" id="dropdown">
    <path d="M12 16.5L8.10289 9.75L15.8971 9.75L12 16.5Z" fill="#0D0B0C"></path>
  </symbol>
  <symbol fill="none" xmlns="http://www.w3.org/2000/svg" viewBox="0 0 24 24" id="GPS">
    <path d="M19.5 9.20039C19.5 5.05412 16.1392 1.6875 12 1.6875C7.86085 1.6875 4.5 5.05412 4.5 9.20039C4.5 12.6024 6.87028 15.6501 10.125 16.5006L10.7618 18.2017C8.99292 18.308 6.02123 18.7332 6.02123 20.2216C6.02123 22.2416 11.3986 22.3125 12.0354 22.3125C12.6722 22.3125 18.0495 22.2416 18.0495 20.2216C18.0495 18.6978 15.0425 18.308 13.2736 18.2017L13.875 16.5361C17.1297 15.6856 19.5 12.6379 19.5 9.20039ZM14.441 9.20039C14.441 10.547 13.3443 11.6456 12 11.6456C10.6557 11.6456 9.55896 10.547 9.55896 9.20039C9.55896 7.85374 10.6557 6.75515 12 6.75515C13.3443 6.75515 14.441 7.85374 14.441 9.20039ZM16.7759 20.2216C16.4222 20.576 14.6887 21.1076 12 21.1076C9.3467 21.1076 7.61321 20.576 7.22406 20.2216C7.54245 19.9027 8.99292 19.442 11.1863 19.3711L11.5755 20.3988C11.6462 20.576 11.7877 20.6823 12 20.6823C12.1769 20.6823 12.3538 20.576 12.4245 20.3988L12.7783 19.3711C15.0071 19.442 16.4222 19.9027 16.7759 20.2216Z" fill="white"></path>
  </symbol>
  <symbol fill="none" xmlns="http://www.w3.org/2000/svg" viewBox="0 0 34 34" id="spot">
    <rect x="0.5" y="0.5" width="33" height="33" rx="16.5" fill="#FF1D6C"></rect>
    <path d="M17 12.4706L11.5 21.5294H22.5L17 12.4706Z" fill="white"></path>
    <rect x="0.5" y="0.5" width="33" height="33" rx="16.5" stroke="#FF1D6C"></rect>
  </symbol>
  <symbol fill="none" xmlns="http://www.w3.org/2000/svg" viewBox="0 0 34 34" id="lodging">
    <rect width="34" height="34" rx="17" fill="#FFB72C"></rect>
    <rect x="12.5" y="12.5" width="9" height="9" fill="white"></rect>
  </symbol>
  <symbol fill="none" xmlns="http://www.w3.org/2000/svg" viewBox="0 0 24 24" id="map_M">
    <path fill-rule="evenodd" clip-rule="evenodd" d="M12 21.7778C12 21.7778 20 16.4444 20 10.2222C20 8.10048 19.1571 6.06565 17.6569 4.56536C16.1566 3.06507 14.1217 2.22221 12 2.22221C9.87827 2.22221 7.84344 3.06507 6.34315 4.56536C4.84285 6.06565 4 8.10048 4 10.2222C4 16.4444 12 21.7778 12 21.7778ZM14.6676 10.2224C14.6676 11.6952 13.4736 12.8891 12.0009 12.8891C10.5281 12.8891 9.33421 11.6952 9.33421 10.2224C9.33421 8.74965 10.5281 7.55574 12.0009 7.55574C13.4736 7.55574 14.6676 8.74965 14.6676 10.2224Z" fill="white"></path>
  </symbol>
  <symbol fill="none" xmlns="http://www.w3.org/2000/svg" viewBox="0 0 16 16" id="map">
    <path fill-rule="evenodd" clip-rule="evenodd" d="M5.5 13.4444C5.5 13.4444 11 9.77778 11 5.5C11 4.04131 10.4205 2.64236 9.38909 1.61091C8.35764 0.579463 6.95869 0 5.5 0C4.04131 0 2.64236 0.579463 1.61091 1.61091C0.579463 2.64236 0 4.04131 0 5.5C0 9.77778 5.5 13.4444 5.5 13.4444ZM7.33388 5.49991C7.33388 6.51243 6.51307 7.33324 5.50055 7.33324C4.48803 7.33324 3.66721 6.51243 3.66721 5.49991C3.66721 4.48739 4.48803 3.66658 5.50055 3.66658C6.51307 3.66658 7.33388 4.48739 7.33388 5.49991Z" fill="#FF1D6C"></path>
  </symbol>
  <symbol fill="none" xmlns="http://www.w3.org/2000/svg" viewBox="0 0 24 24" id="next-1">
    <path d="M9 8.18182V15.8182L15 12L9 8.18182Z" fill="white"></path>
  </symbol>
  <symbol fill="none" xmlns="http://www.w3.org/2000/svg" viewBox="0 0 24 24" id="next">
    <path d="M9 18L15 12L9 6" stroke="#0D0B0C" stroke-width="3" stroke-linecap="round" stroke-linejoin="round"></path>
  </symbol>
  <symbol fill="none" xmlns="http://www.w3.org/2000/svg" viewBox="0 0 24 24" id="previous-1">
    <path d="M15 15.8182L15 8.18182L9 12L15 15.8182Z" fill="#0D0B0C"></path>
  </symbol>
  <symbol fill="none" xmlns="http://www.w3.org/2000/svg" viewBox="0 0 20 20" id="rectangle">
    <rect width="20" height="20" transform="matrix(-1 0 0 1 20 0)" fill="#FFB72C"></rect>
  </symbol>
  <symbol fill="none" xmlns="http://www.w3.org/2000/svg" viewBox="0 0 24 24" id="previous">
    <path d="M15 18L9 12L15 6" stroke="#0D0B0C" stroke-width="3" stroke-linecap="round" stroke-linejoin="round"></path>
  </symbol>
  <symbol fill="none" xmlns="http://www.w3.org/2000/svg" viewBox="0 0 24 24" id="search">
    <path d="M19.5902 18.8006L19.5899 18.8003L17.4894 16.6039C18.5988 15.2274 19.267 13.4511 19.267 11.5169C19.267 7.17433 15.8923 3.61429 11.7089 3.61429C7.52548 3.61429 4.15 7.17428 4.15 11.5169C4.15 15.8595 7.52544 19.4204 11.7089 19.4204C13.3801 19.4204 14.9252 18.8502 16.1759 17.889L18.2995 20.1079L18.3 20.1084C18.4754 20.291 18.709 20.3857 18.9447 20.3857C19.1801 20.3857 19.4157 20.2916 19.5917 20.1051C19.9374 19.742 19.9353 19.1622 19.5902 18.8006ZM5.96031 11.5169C5.96031 8.17123 8.55457 5.47767 11.7089 5.47767C14.8624 5.47767 17.4567 8.1712 17.4567 11.5169C17.4567 14.8627 14.8623 17.557 11.7089 17.557C8.55463 17.557 5.96031 14.8627 5.96031 11.5169Z" fill="white" stroke="white" stroke-width="0.7"></path>
  </symbol>
  <symbol fill="none" xmlns="http://www.w3.org/2000/svg" viewBox="0 0 34 34" id="traffic">
    <rect width="34" height="34" rx="17" fill="#007350"></rect>
    <circle cx="17" cy="17" r="5.5" fill="white"></circle>
  </symbol>
  <symbol fill="none" xmlns="http://www.w3.org/2000/svg" viewBox="0 0 24 24" id="tel">
    <path fill-rule="evenodd" clip-rule="evenodd" d="M4.68649 5.33726C4.68834 5.33726 4.642 5.38546 4.58361 5.44292C4.35933 5.66072 3.895 6.11393 3.89032 7.06207C3.88295 8.38834 4.75507 10.8509 8.95443 15.0494C13.1343 19.2274 15.5931 20.1098 16.9222 20.1098H16.9416C17.8898 20.1051 18.342 19.6399 18.5608 19.4165C18.6275 19.3479 18.6813 19.2979 18.7192 19.2664C19.6423 18.3377 20.115 17.6463 20.1104 17.2033C20.1039 16.751 19.5413 16.2162 18.7637 15.4766C18.5163 15.2412 18.2475 14.9854 17.9639 14.7018C17.2289 13.9687 16.8647 14.0938 16.064 14.3756C14.9564 14.7639 13.4365 15.2922 11.075 12.9297C8.70975 10.5664 9.23896 9.04823 9.62636 7.94069C9.90626 7.13992 10.0342 6.77475 9.29827 6.03886C9.01004 5.75155 8.75146 5.47907 8.51327 5.22883C7.77831 4.45586 7.24818 3.89699 6.79868 3.8905H6.79126C6.34732 3.8905 5.65778 4.36503 4.68186 5.34097C4.68464 5.33819 4.68649 5.33726 4.68649 5.33726ZM16.9231 21.5C14.6135 21.5 11.6023 19.6612 7.97201 16.0327C4.32782 12.3894 2.48625 9.36891 2.50008 7.05465C2.5085 5.52541 3.31018 4.74225 3.6114 4.44845C3.62715 4.42898 3.68091 4.37615 3.69944 4.35762C5.02848 3.02764 5.9247 2.49009 6.81629 2.50014C7.85153 2.51418 8.58834 3.289 9.52071 4.2705C9.75148 4.51332 10.0017 4.77747 10.2807 5.05551C11.6338 6.40866 11.2483 7.5125 10.9387 8.39853C10.6014 9.3652 10.3094 10.1993 12.0574 11.9473C13.8072 13.6953 14.6413 13.4033 15.6043 13.0632C16.4912 12.7536 17.5923 12.3662 18.9472 13.7194C19.2216 13.9937 19.482 14.2412 19.7221 14.4701C20.7082 15.4071 21.4867 16.1476 21.4998 17.1857C21.5108 18.0708 20.9732 18.9726 19.6461 20.3007L19.0585 19.9022L19.5552 20.3878C19.2614 20.689 18.4792 21.4917 16.9491 21.5H16.9231Z" fill="#FF1D6C"></path>
  </symbol>
  <symbol fill="none" xmlns="http://www.w3.org/2000/svg" viewBox="0 0 20 17" id="triangle">
    <path d="M10 0L0 16.1905H20L10 0Z" fill="#FF1D6C"></path>
  </symbol>
</svg>