<svg width="68" height="45" viewBox="0 0 68 45" fill="none" xmlns="http://www.w3.org/2000/svg">
<path d="M11.9837 0.55835L1.34854 17.5747H22.6189L11.9837 0.55835Z" fill="#E4E4E4"/>
<rect x="27.6189" y="0.55835" width="17.0163" height="17.0163" fill="#D2D2D2"/>
<circle cx="58.1433" cy="9.06651" r="8.50816" fill="#E4E4E4"/>
<path d="M10.4422 40.5747H8.24493L3.96759 33.5581V40.5747H1.77032V29.9106H3.96759L8.25226 36.9419V29.9106H10.4422V40.5747ZM11.8924 36.5391C11.8924 35.7529 12.0438 35.0522 12.3465 34.437C12.6492 33.8218 13.0838 33.3457 13.6502 33.0088C14.2215 32.6719 14.8831 32.5034 15.6351 32.5034C16.7044 32.5034 17.576 32.8306 18.2498 33.4849C18.9285 34.1392 19.3069 35.0278 19.3851 36.1509L19.3997 36.6929C19.3997 37.9087 19.0604 38.8853 18.3817 39.6226C17.7029 40.355 16.7923 40.7212 15.6497 40.7212C14.5071 40.7212 13.5941 40.355 12.9105 39.6226C12.2318 38.8901 11.8924 37.894 11.8924 36.6343V36.5391ZM14.0091 36.6929C14.0091 37.4448 14.1507 38.021 14.4339 38.4214C14.7171 38.8169 15.1224 39.0146 15.6497 39.0146C16.1624 39.0146 16.5628 38.8193 16.8509 38.4287C17.139 38.0332 17.283 37.4033 17.283 36.5391C17.283 35.8018 17.139 35.2305 16.8509 34.8252C16.5628 34.4199 16.1575 34.2173 15.6351 34.2173C15.1175 34.2173 14.7171 34.4199 14.4339 34.8252C14.1507 35.2256 14.0091 35.8481 14.0091 36.6929ZM26.9144 40.5747H24.7171V29.9106H26.9144V40.5747ZM30.8035 32.6499L30.8694 33.5361C31.431 32.8477 32.1902 32.5034 33.1473 32.5034C34.1678 32.5034 34.8685 32.9062 35.2493 33.7119C35.806 32.9062 36.5994 32.5034 37.6297 32.5034C38.4891 32.5034 39.1287 32.7549 39.5486 33.2578C39.9686 33.7559 40.1785 34.5078 40.1785 35.5137V40.5747H38.0545V35.521C38.0545 35.0718 37.9666 34.7446 37.7908 34.5396C37.6151 34.3296 37.305 34.2246 36.8607 34.2246C36.2259 34.2246 35.7864 34.5273 35.5423 35.1328L35.5496 40.5747H33.4329V35.5283C33.4329 35.0693 33.3426 34.7373 33.1619 34.5322C32.9813 34.3271 32.6736 34.2246 32.2391 34.2246C31.6385 34.2246 31.2039 34.4736 30.9354 34.9717V40.5747H28.8187V32.6499H30.8035ZM46.4041 40.5747C46.3065 40.3843 46.2357 40.1475 46.1917 39.8643C45.679 40.4355 45.0125 40.7212 44.1922 40.7212C43.4158 40.7212 42.7713 40.4966 42.2586 40.0474C41.7508 39.5981 41.4969 39.0317 41.4969 38.3481C41.4969 37.5083 41.8069 36.8638 42.4271 36.4146C43.0521 35.9653 43.9529 35.7383 45.1297 35.7334H46.1038V35.2793C46.1038 34.9131 46.0086 34.6201 45.8182 34.4004C45.6326 34.1807 45.3372 34.0708 44.9319 34.0708C44.5755 34.0708 44.2947 34.1562 44.0897 34.3271C43.8895 34.498 43.7894 34.7324 43.7894 35.0303H41.6727C41.6727 34.5713 41.8143 34.1465 42.0975 33.7559C42.3807 33.3652 42.7811 33.0601 43.2986 32.8403C43.8162 32.6157 44.3973 32.5034 45.0418 32.5034C46.0184 32.5034 46.7923 32.75 47.3636 33.2432C47.9398 33.7314 48.2278 34.4199 48.2278 35.3086V38.7437C48.2327 39.4956 48.3377 40.0645 48.5428 40.4502V40.5747H46.4041ZM44.6536 39.1025C44.9661 39.1025 45.2542 39.0342 45.5179 38.8975C45.7816 38.7559 45.9769 38.5679 46.1038 38.3335V36.9712H45.3128C44.2532 36.9712 43.6893 37.3374 43.6209 38.0698L43.6136 38.1943C43.6136 38.458 43.7064 38.6753 43.8919 38.8462C44.0775 39.0171 44.3314 39.1025 44.6536 39.1025ZM49.5462 36.5537C49.5462 35.3379 49.8343 34.3589 50.4105 33.6167C50.9915 32.8745 51.7728 32.5034 52.7542 32.5034C53.6234 32.5034 54.2996 32.8013 54.783 33.397L54.8709 32.6499H56.7899V40.311C56.7899 41.0044 56.6312 41.6074 56.3138 42.1201C56.0013 42.6328 55.5594 43.0234 54.9881 43.292C54.4168 43.5605 53.7479 43.6948 52.9813 43.6948C52.4002 43.6948 51.8338 43.5776 51.282 43.3433C50.7303 43.1138 50.3128 42.8159 50.0296 42.4497L50.9671 41.1606C51.4944 41.7515 52.1341 42.0469 52.886 42.0469C53.4476 42.0469 53.8846 41.8955 54.1971 41.5928C54.5096 41.2949 54.6658 40.8701 54.6658 40.3184V39.8936C54.1776 40.4453 53.5355 40.7212 52.7396 40.7212C51.7874 40.7212 51.0159 40.3501 50.4251 39.6079C49.8392 38.8608 49.5462 37.8721 49.5462 36.6416V36.5537ZM51.6629 36.7075C51.6629 37.4253 51.8069 37.9893 52.095 38.3994C52.3831 38.8047 52.7786 39.0073 53.2816 39.0073C53.9261 39.0073 54.3875 38.7656 54.6658 38.2822V34.9497C54.3826 34.4663 53.9261 34.2246 53.2962 34.2246C52.7884 34.2246 52.388 34.4321 52.095 34.8472C51.8069 35.2622 51.6629 35.8823 51.6629 36.7075ZM62.0706 40.7212C60.9085 40.7212 59.9612 40.3647 59.2288 39.6519C58.5013 38.939 58.1375 37.9893 58.1375 36.8027V36.5977C58.1375 35.8018 58.2913 35.0913 58.5989 34.4663C58.9066 33.8364 59.3411 33.353 59.9026 33.0161C60.4691 32.6743 61.1136 32.5034 61.8362 32.5034C62.9202 32.5034 63.7723 32.8452 64.3924 33.5288C65.0174 34.2124 65.3299 35.1816 65.3299 36.4365V37.3008H60.2835C60.3519 37.8184 60.5569 38.2334 60.8987 38.5459C61.2454 38.8584 61.6824 39.0146 62.2098 39.0146C63.0252 39.0146 63.6624 38.7192 64.1214 38.1284L65.1614 39.293C64.8441 39.7422 64.4144 40.0938 63.8724 40.3477C63.3304 40.5967 62.7298 40.7212 62.0706 40.7212ZM61.8289 34.2173C61.409 34.2173 61.0672 34.3589 60.8035 34.6421C60.5447 34.9253 60.3787 35.3306 60.3055 35.8579H63.2498V35.6895C63.2401 35.2207 63.1131 34.8594 62.869 34.6055C62.6248 34.3467 62.2781 34.2173 61.8289 34.2173Z" fill="#E4E4E4"/>
</svg>
